<svg id="Logo" xmlns="http://www.w3.org/2000/svg" viewBox="0 0 530.24 344"><defs><style>.cls-1{fill:#231f20;}.cls-2,.cls-3{fill:none;stroke:#231f20;}.cls-2{stroke-width:11px;}.cls-3{stroke-width:8px;}</style></defs><g id="Logo_Black"><g id="Text"><path class="cls-1" d="M178.75,236.09q-.5,7.62-4.11,11.19t-10,3.56a12.33,12.33,0,0,1-10.36-5q-3.81-5-3.83-13.5v-9.83q0-8.56,3.87-13.42a12.84,12.84,0,0,1,10.6-4.86q6.34,0,9.84,3.65t4,11.17h-3.61c-.33-4.11-1.3-7-2.91-8.81s-4-2.64-7.3-2.64a9.41,9.41,0,0,0-8,3.83q-2.87,3.83-2.86,11.11v9.71q0,7.23,2.77,11.24a8.92,8.92,0,0,0,7.81,4q5.29,0,7.66-2.64c1.58-1.77,2.52-4.7,2.83-8.81Z"/><path class="cls-1" d="M215.73,232.48q0,8.78-3.84,13.57t-10.79,4.79q-6.87,0-10.78-4.79t-3.94-13.48V222.7q0-8.74,3.89-13.59A13.09,13.09,0,0,1,201,204.27q7,0,10.83,4.86t3.86,13.67Zm-3.58-9.84q0-7.44-2.86-11.17a10.9,10.9,0,0,0-16.37-.08q-2.92,3.66-3,10.94v10.15q0,7.47,3,11.22a9.87,9.87,0,0,0,8.21,3.75q5.42,0,8.24-3.73t2.81-11.24Z"/><path class="cls-1" d="M236.36,244.55l.09.5.13-.5,11.83-39.65h3.92l-14.17,45.32H234.8L220.64,204.9h3.89Z"/><path class="cls-1" d="M263.25,250.22h-3.54V204.9h3.54Z"/><path class="cls-1" d="M274.62,250.22V204.9h10.67q7.38,0,11.68,4.71t4.42,13v9.49q0,8.53-4.35,13.33t-12.18,4.79Zm3.54-42v38.66H285q6.07,0,9.41-3.75t3.42-10.72V223q0-7-3.25-10.83t-9.42-3.86Z"/><path class="cls-1" d="M320,231.89H307.43v-3.24H320Z"/><path class="cls-1" d="M341,250.22h-3.49V209.47l-10.24,4.58V210.5l13.13-5.76h.6Z"/><path class="cls-1" d="M376.53,229.55a12.17,12.17,0,0,1-4.07,4.26,9.75,9.75,0,0,1-5.23,1.53,9.25,9.25,0,0,1-7.88-4.26,18.46,18.46,0,0,1-3-10.91q0-6.91,3.16-11.4a9.78,9.78,0,0,1,8.39-4.5A10.15,10.15,0,0,1,376.8,209Q380,213.8,380,222.58v3.36q0,12.39-4.33,18.44t-13.16,6.15h-.94l0-3.3h1q6.72-.09,10.22-4.43T376.53,229.55Zm-8.84,2.55A7.89,7.89,0,0,0,373,230a12.36,12.36,0,0,0,3.54-5.72V222q0-6.69-2.36-10.58t-6.3-3.88c-2.39,0-4.35,1.19-5.88,3.55a16.13,16.13,0,0,0-2.31,8.95,15.76,15.76,0,0,0,2.21,8.65A6.63,6.63,0,0,0,367.69,232.1Z"/><path class="cls-1" d="M8.45,326.72V281.4H19.13q7.38,0,11.67,4.71t4.42,13v9.5q0,8.52-4.34,13.32t-12.19,4.79Zm3.55-42v38.66h6.88q6.07,0,9.4-3.75T31.71,309v-9.5q0-7-3.26-10.83T19,284.76Z"/><path class="cls-1" d="M61.84,326.72a21.7,21.7,0,0,1-.62-4.67,11.17,11.17,0,0,1-4,3.91,10.63,10.63,0,0,1-5.31,1.39,9.11,9.11,0,0,1-6.79-2.46q-2.43-2.46-2.43-7A9.79,9.79,0,0,1,46.07,310q3.38-2.9,9.32-2.93h5.79v-4.7c0-2.41-.59-4.13-1.79-5.18a7.7,7.7,0,0,0-5.24-1.57,7.53,7.53,0,0,0-5.26,1.86,6.25,6.25,0,0,0-2.06,4.83l-3.45,0a9.22,9.22,0,0,1,3.11-7,11.07,11.07,0,0,1,7.81-2.88q5.09,0,7.69,2.55t2.62,7.44v16.53a22.91,22.91,0,0,0,.9,7.41v.37ZM52.34,324a9.42,9.42,0,0,0,5.41-1.58,9.22,9.22,0,0,0,3.43-4.24V310H55.71q-4.74.06-7.13,2.1a6.84,6.84,0,0,0-2.4,5.49Q46.18,324,52.34,324Z"/><path class="cls-1" d="M79.24,284.45V293H85v3.11H79.24v22.39a8.11,8.11,0,0,0,.82,4.12A3,3,0,0,0,82.82,324a14.42,14.42,0,0,0,2.49-.31l.09,3.12a8.63,8.63,0,0,1-3.39.53q-6.08,0-6.23-8.35V296.15h-5.2V293h5.2v-8.59Z"/><path class="cls-1" d="M110.34,326.72a22.24,22.24,0,0,1-.63-4.67,11,11,0,0,1-4,3.91,10.57,10.57,0,0,1-5.3,1.39,9.11,9.11,0,0,1-6.79-2.46q-2.43-2.46-2.43-7A9.79,9.79,0,0,1,94.57,310q3.38-2.9,9.32-2.93h5.79v-4.7c0-2.41-.59-4.13-1.79-5.18a7.7,7.7,0,0,0-5.24-1.57,7.53,7.53,0,0,0-5.26,1.86,6.25,6.25,0,0,0-2.06,4.83l-3.45,0a9.18,9.18,0,0,1,3.11-7,11.07,11.07,0,0,1,7.81-2.88q5.08,0,7.69,2.55t2.62,7.44v16.53a22.91,22.91,0,0,0,.9,7.41v.37Zm-9.5-2.71a9.37,9.37,0,0,0,5.4-1.58,9.18,9.18,0,0,0,3.44-4.24V310h-5.47q-4.74.06-7.13,2.1a6.84,6.84,0,0,0-2.4,5.49Q94.68,324,100.84,324Z"/><path class="cls-1" d="M158.21,314.05h-17l-3.86,12.67h-3.71L148.1,281.4h3.3l14.44,45.32h-3.7Zm-16-3.33h14.94l-7.47-24.31Z"/><path class="cls-1" d="M175.12,293l.09,5.35A12.63,12.63,0,0,1,179,294a9,9,0,0,1,5.28-1.62q8.8,0,9,11.73v22.57H189.9V304.53q0-4.51-1.58-6.66a5.62,5.62,0,0,0-4.89-2.15,6.91,6.91,0,0,0-4.87,2,12.76,12.76,0,0,0-3.29,5.58v23.38h-3.45V293Z"/><path class="cls-1" d="M220.32,326.72a21.7,21.7,0,0,1-.62-4.67,11.11,11.11,0,0,1-4,3.91,10.57,10.57,0,0,1-5.3,1.39,9.11,9.11,0,0,1-6.79-2.46q-2.43-2.46-2.43-7a9.79,9.79,0,0,1,3.38-7.84q3.38-2.9,9.32-2.93h5.79v-4.7c0-2.41-.59-4.13-1.79-5.18a7.7,7.7,0,0,0-5.24-1.57,7.53,7.53,0,0,0-5.26,1.86,6.25,6.25,0,0,0-2.06,4.83l-3.45,0a9.22,9.22,0,0,1,3.11-7,11.07,11.07,0,0,1,7.81-2.88q5.08,0,7.69,2.55t2.62,7.44v16.53a22.91,22.91,0,0,0,.9,7.41v.37Zm-9.5-2.71a9.37,9.37,0,0,0,5.4-1.58,9.18,9.18,0,0,0,3.44-4.24V310h-5.48c-3.15,0-5.53.74-7.12,2.1a6.84,6.84,0,0,0-2.4,5.49Q204.66,324,210.82,324Z"/><path class="cls-1" d="M236.38,326.72h-3.49V278.91h3.49Z"/><path class="cls-1" d="M254.9,321l8-28h3.71l-11.86,39.07-.66,1.87q-2.38,6.34-7.34,6.35a7.88,7.88,0,0,1-2.49-.44l0-3.17a5.54,5.54,0,0,0,1.58.21,5.15,5.15,0,0,0,3.68-1.34,9.9,9.9,0,0,0,2.36-4.32l1.43-4.76L242.73,293h3.8Z"/><path class="cls-1" d="M289.46,318.42a5,5,0,0,0-1.81-3.8,24.3,24.3,0,0,0-6.12-3.57,34.81,34.81,0,0,1-6-3.24A8.68,8.68,0,0,1,273,305a7.57,7.57,0,0,1-.81-3.61A8.27,8.27,0,0,1,275,295a10.36,10.36,0,0,1,7.25-2.54,10.67,10.67,0,0,1,7.66,2.71,9.39,9.39,0,0,1,2.87,7.16H289.3a6.31,6.31,0,0,0-2-4.75,7.05,7.05,0,0,0-5.11-1.88,7.12,7.12,0,0,0-4.84,1.55,5.13,5.13,0,0,0-1.79,4.05,4.31,4.31,0,0,0,1.37,3.3,27.32,27.32,0,0,0,5.92,3.45,34.92,34.92,0,0,1,6.47,3.4,9.41,9.41,0,0,1,2.68,3,7.92,7.92,0,0,1,.9,3.88,8.25,8.25,0,0,1-2.89,6.63,11.38,11.38,0,0,1-7.63,2.46,11.83,11.83,0,0,1-8.11-2.74,9,9,0,0,1-3.1-7.07h3.49a6.57,6.57,0,0,0,2.1,4.85,8.22,8.22,0,0,0,5.62,1.72,7.89,7.89,0,0,0,5.11-1.56A5,5,0,0,0,289.46,318.42Z"/><path class="cls-1" d="M300.94,283.33a2.85,2.85,0,0,1,.59-1.81,2,2,0,0,1,1.68-.74,2,2,0,0,1,1.7.74,2.75,2.75,0,0,1,.61,1.81,2.7,2.7,0,0,1-.61,1.79,2.07,2.07,0,0,1-1.7.73,2,2,0,0,1-1.68-.73A2.79,2.79,0,0,1,300.94,283.33Zm4,43.39h-3.49V293h3.49Z"/><path class="cls-1" d="M331.32,318.42a5,5,0,0,0-1.8-3.8,24.49,24.49,0,0,0-6.12-3.57,34.81,34.81,0,0,1-6-3.24,8.68,8.68,0,0,1-2.52-2.82,7.57,7.57,0,0,1-.81-3.61,8.27,8.27,0,0,1,2.8-6.42,10.34,10.34,0,0,1,7.25-2.54,10.67,10.67,0,0,1,7.66,2.71,9.38,9.38,0,0,1,2.86,7.16h-3.45a6.34,6.34,0,0,0-2-4.75,7.05,7.05,0,0,0-5.11-1.88,7.12,7.12,0,0,0-4.84,1.55,5.13,5.13,0,0,0-1.79,4.05,4.31,4.31,0,0,0,1.37,3.3,27.06,27.06,0,0,0,5.92,3.45,34.92,34.92,0,0,1,6.47,3.4,9.54,9.54,0,0,1,2.68,3,7.92,7.92,0,0,1,.9,3.88,8.25,8.25,0,0,1-2.89,6.63,11.39,11.39,0,0,1-7.63,2.46,11.81,11.81,0,0,1-8.11-2.74,9,9,0,0,1-3.1-7.07h3.49a6.57,6.57,0,0,0,2.1,4.85,8.22,8.22,0,0,0,5.62,1.72,7.84,7.84,0,0,0,5.1-1.56A5,5,0,0,0,331.32,318.42Z"/><path class="cls-1" d="M361.55,308.29v18.43H358V281.4h13.17q6,0,9.46,3.61t3.46,9.93q0,6.45-3.35,9.9t-9.63,3.45Zm0-3.33h9.62a9,9,0,0,0,6.93-2.6q2.44-2.6,2.44-7.36a10.79,10.79,0,0,0-2.47-7.5,8.77,8.77,0,0,0-6.87-2.74h-9.65Z"/><path class="cls-1" d="M404.82,296.28a12.44,12.44,0,0,0-2.18-.22,6.5,6.5,0,0,0-4.81,2,11.21,11.21,0,0,0-2.75,5.45v23.25h-3.46V293H395l.07,5q2.46-5.65,7.72-5.66a4.28,4.28,0,0,1,2.08.4Z"/><path class="cls-1" d="M409.07,308.17q0-7.29,3.3-11.52a11.75,11.75,0,0,1,18-.06q3.28,4.17,3.32,11.49v3.58q0,7.41-3.32,11.55a11.81,11.81,0,0,1-17.88.09q-3.3-4.05-3.43-11.15Zm3.49,3.47q0,5.81,2.35,9.14a8.14,8.14,0,0,0,13,.13q2.26-3.21,2.29-9.18v-3.57q0-5.82-2.36-9.16a7.55,7.55,0,0,0-6.51-3.34,7.47,7.47,0,0,0-6.38,3.26c-1.58,2.18-2.39,5.17-2.43,9Z"/><path class="cls-1" d="M445.37,293v37.42q0,9.87-7.44,9.87a6.57,6.57,0,0,1-2.77-.6l0-3.14a7.32,7.32,0,0,0,2.31.41c2.94,0,4.42-2.11,4.42-6.32V293Zm-4-9.71a2.9,2.9,0,0,1,.57-1.81,2,2,0,0,1,1.67-.74,2,2,0,0,1,1.69.74,2.75,2.75,0,0,1,.61,1.81,2.7,2.7,0,0,1-.61,1.79,2.06,2.06,0,0,1-1.69.73,2,2,0,0,1-1.67-.73A2.84,2.84,0,0,1,441.39,283.33Z"/><path class="cls-1" d="M466.35,327.35a11.66,11.66,0,0,1-9.31-3.9q-3.36-3.88-3.42-11.08v-4.11q0-7.41,3.24-11.62a10.58,10.58,0,0,1,8.9-4.22q5.48,0,8.36,3.58t2.94,11v3.23H457v1.9q0,5.79,2.48,8.94a8.4,8.4,0,0,0,7,3.14,10,10,0,0,0,8.06-3.64l1.81,2.3Q473.08,327.34,466.35,327.35Zm-.59-31.69a7.41,7.41,0,0,0-6.27,2.88c-1.46,1.92-2.27,4.72-2.41,8.42h16.53v-.91Q473.36,295.65,465.76,295.66Z"/><path class="cls-1" d="M495.05,324.11a7.27,7.27,0,0,0,5.54-2,8.55,8.55,0,0,0,2.09-5.8H506a11.54,11.54,0,0,1-3.3,8.11,10.6,10.6,0,0,1-7.66,3q-6,0-9.07-3.85t-3.13-11.41V308q0-7.71,3.07-11.64t9.1-3.92a10.19,10.19,0,0,1,7.91,3.16c1.93,2.1,3,5.05,3.08,8.82h-3.33a10.22,10.22,0,0,0-2.12-6.46,6.9,6.9,0,0,0-5.54-2.28q-4.49,0-6.58,3t-2.1,9.27v3.82c0,4.32.7,7.45,2.11,9.41S492.06,324.11,495.05,324.11Z"/><path class="cls-1" d="M518.52,284.45V293h5.76v3.11h-5.76v22.39a8.09,8.09,0,0,0,.83,4.12A3,3,0,0,0,522.1,324a14.42,14.42,0,0,0,2.49-.31l.1,3.12a8.65,8.65,0,0,1-3.4.53q-6.06,0-6.22-8.35V296.15h-5.2V293h5.2v-8.59Z"/></g><g id="Data"><line class="cls-2" x1="463.43" y1="106.24" x2="490.85" y2="82.11"/><line class="cls-2" x1="358.93" y1="102.75" x2="388.29" y2="76.06"/><line class="cls-2" x1="406.11" y1="73.55" x2="434.8" y2="103.26"/><path class="cls-3" d="M345.09,131.52A16.1,16.1,0,1,0,329,115.42,16.1,16.1,0,0,0,345.09,131.52Z"/><path class="cls-3" d="M447.33,131a16.09,16.09,0,1,0-16.09-16.09A16.09,16.09,0,0,0,447.33,131Z"/><circle class="cls-3" cx="395.91" cy="65.7" r="12.87" transform="translate(183.7 406.33) rotate(-67.5)"/></g><g id="Virus"><path class="cls-1" d="M129.67,54.31C124.32,43.73,133,33.57,133,33.57c-8.89-4.26-14.63,0-14.63,0C127.63,43.88,121,53.63,121,53.63Z"/><path class="cls-1" d="M138.21,32.79c0,2.69-5.61,3.77-12.53,3.77s-12.53-1.08-12.53-3.77,5.61-6,12.53-6,12.53,3.3,12.53,6"/><path class="cls-1" d="M160.06,72.07c3.49-11.34,16.78-12.64,16.78-12.64-3.45-9.23-10.54-10.14-10.54-10.14-.47,13.85-12,16.28-12,16.28Z"/><path class="cls-1" d="M181.14,62.49c-1.86,1.94-6.65-1.18-11.64-6s-8.28-9.46-6.42-11.4,8.2-.43,13.18,4.37,6.75,11.06,4.88,13"/><path class="cls-1" d="M80.63,83.35C68.46,88,58.32,77.42,58.32,77.42c-5.64,9.24-1.61,16-1.61,16,12.29-9,22.21-.65,22.21-.65Z"/><path class="cls-1" d="M58.05,71.63c2.94.3,3.49,6.55,2.73,14.11S58.22,99.32,55.28,99s-5.93-6.79-5.16-14.36,5-13.33,7.93-13"/><path class="cls-1" d="M126.57,142.32c9.26,9.17,3.74,22.77,3.74,22.77,10.75,1.35,15.25-5.09,15.25-5.09-13.24-7.52-9.72-20-9.72-20Z"/><path class="cls-1" d="M125.15,167.72c-.94-2.8,4.53-5.87,11.75-8.28s13.43-3.25,14.36-.44-3.76,8.19-11,10.6-14.2.93-15.14-1.88"/><path class="cls-1" d="M90.62,65.44c-8.39-2.32-9.61-12-9.61-12-6.7,2.73-7.22,7.94-7.22,7.94C84,61.4,86,69.81,86,69.81Z"/><path class="cls-1" d="M83.15,50.19c1.47,1.33-.72,4.9-4.13,8.65s-6.76,6.28-8.22,4.95-.49-6,2.93-9.75,8-5.18,9.42-3.85"/><path class="cls-1" d="M88.13,127.76c-2.86,8.21-12.63,8.81-12.63,8.81,2.28,6.86,7.45,7.71,7.45,7.71.72-10.13,9.24-11.6,9.24-11.6Z"/><path class="cls-1" d="M72.43,134.22c1.42-1.38,4.84,1,8.37,4.68s5.82,7.16,4.4,8.53-6,.09-9.55-3.56-4.64-8.28-3.22-9.65"/><path class="cls-1" d="M159.44,126.78c8.65.91,11.46,10.3,11.46,10.3,6.16-3.79,5.81-9,5.81-9-10,1.61-13.41-6.35-13.41-6.35Z"/><path class="cls-1" d="M169.31,140.6c-1.66-1.07-.09-4.95,2.66-9.22s5.64-7.29,7.3-6.22,1.46,5.84-1.29,10.1-7,6.41-8.67,5.34"/><path class="cls-1" d="M167.86,108.69c9.61-2.72,16.61,6.1,16.61,6.1,4.95-6.66,2.36-12.1,2.36-12.1-10,6-17-1.06-17-1.06Z"/><path class="cls-1" d="M184.27,119.23c-2.22-.43-2.21-5.25-1.09-11s2.91-10.19,5.14-9.75,4,5.6,2.93,11.32-4.75,9.83-7,9.4"/><path class="cls-1" d="M79.86,101.34a72.73,72.73,0,0,0-14.15,2.12c-2,.51-1.15,3.61.86,3.1a67.75,67.75,0,0,1,13.29-2,1.64,1.64,0,0,0,1.6-1.61,1.61,1.61,0,0,0-1.6-1.6"/><path class="cls-1" d="M85.18,118.65a1.66,1.66,0,0,0-2.27,0l-6.78,5.46a1.6,1.6,0,0,0,0,2.27,1.65,1.65,0,0,0,2.27,0l6.78-5.46a1.6,1.6,0,0,0,0-2.27"/><path class="cls-1" d="M80.67,74.92l-7-2a1.61,1.61,0,0,0-2,1.12,1.64,1.64,0,0,0,1.12,2l7,2a1.62,1.62,0,0,0,2-1.12,1.64,1.64,0,0,0-1.12-2"/><path class="cls-1" d="M106.17,54.93q-2.88-6.75-5.78-13.5a1.62,1.62,0,0,0-2.2-.57,1.66,1.66,0,0,0-.58,2.2l5.79,13.5a1.62,1.62,0,0,0,2.2.57,1.64,1.64,0,0,0,.57-2.2"/><path class="cls-1" d="M113.79,45.25a1.61,1.61,0,0,0-3.22,0q.3,4.16.58,8.33a1.61,1.61,0,0,0,3.22,0c-.19-2.78-.39-5.56-.58-8.33"/><path class="cls-1" d="M149.21,45.91a1.61,1.61,0,0,0-2.19.57q-2.64,5.35-5.26,10.71a1.65,1.65,0,0,0,.58,2.2,1.62,1.62,0,0,0,2.2-.58l5.25-10.71a1.64,1.64,0,0,0-.58-2.19"/><path class="cls-1" d="M179,79.78a1.64,1.64,0,0,0-2.2-.58,33.85,33.85,0,0,1-9.68,3.55,1.61,1.61,0,1,0,.86,3.1A37.59,37.59,0,0,0,178.43,82a1.62,1.62,0,0,0,.57-2.2"/><path class="cls-1" d="M151.42,147.42l-6.09-10.18a1.61,1.61,0,0,0-2.78,1.63q3,5.08,6.1,10.17a1.6,1.6,0,0,0,2.77-1.62"/><path class="cls-1" d="M113.05,136.13a1.61,1.61,0,0,0-2,1.13,71.44,71.44,0,0,1-4.46,14,1.67,1.67,0,0,0,.58,2.2,1.62,1.62,0,0,0,2.2-.58,75.5,75.5,0,0,0,4.78-14.81,1.65,1.65,0,0,0-1.13-2"/><path class="cls-1" d="M104.68,137.41a1.66,1.66,0,0,0-2,1.13,112.23,112.23,0,0,1-5.41,11.28,1.6,1.6,0,1,0,2.77,1.62,119.76,119.76,0,0,0,5.75-12.05,1.63,1.63,0,0,0-1.13-2"/><path class="cls-1" d="M173.55,97.74c0,26.53-26.42,50.83-53,50.83-16.91,0-30.91-11.58-38.85-26.86a62,62,0,0,1-7.08-28.22c0-26.54,20.13-42.4,46.68-42.4a55.63,55.63,0,0,1,41.65,19,42.4,42.4,0,0,1,10.56,27.68"/></g><path id="Glasses" class="cls-1" d="M407.87,186.68c-50.65,0-91.86-39.57-91.86-88.21s41.21-88.19,91.86-88.19,91.86,39.57,91.86,88.19-41.21,88.21-91.86,88.21m-284.79,0c-50.65,0-91.86-39.57-91.86-88.21s41.21-88.19,91.86-88.19,91.86,39.57,91.86,88.19-41.21,88.21-91.86,88.21M530.24,89.06c0-6.36-13.42-6.1-21.47-5.37C501.35,36.38,458.93,0,407.87,0,362,0,323.07,29.39,310.28,69.69c-42.17-20.46-76.8-6.68-89.59.08C207.93,29.43,169,0,123.08,0,72,0,29.56,36.41,22.18,83.76,14.24,83,0,82.5,0,89.06c0,6.25,13,7.13,21.09,7.07,0,.78-.06,1.56-.06,2.34C21,152.78,66.81,197,123.08,197s102.05-44.18,102.05-98.49a94.81,94.81,0,0,0-1.82-18.4,84.62,84.62,0,0,1,24.23-8.95c20.27-4.2,40.48-1.17,60.12,8.81a95.31,95.31,0,0,0-1.84,18.54c0,54.31,45.78,98.49,102.05,98.49s102.05-44.18,102.05-98.49c0-.78,0-1.56-.06-2.35,8.13,0,20.38-1,20.38-7.06"/></g></svg>